<?xml version="1.0" encoding="utf-8"?>
<!-- Generator: Adobe Illustrator 16.0.3, SVG Export Plug-In . SVG Version: 6.00 Build 0)  -->
<!DOCTYPE svg PUBLIC "-//W3C//DTD SVG 1.1//EN" "http://www.w3.org/Graphics/SVG/1.1/DTD/svg11.dtd">
<svg version="1.1" id="Capa_1" xmlns="http://www.w3.org/2000/svg" xmlns:xlink="http://www.w3.org/1999/xlink" x="0px" y="0px"
	 width="2500.158px" height="2500.158px" viewBox="-0.079 -225.258 2500.158 2500.158"
	 enable-background="new -0.079 -225.258 2500.158 2500.158" xml:space="preserve">
<g transform="matrix(.569 0 0 .569 199.451 -82.735)">
	
		<linearGradient id="SVGID_1_" gradientUnits="userSpaceOnUse" x1="-17769.9258" y1="-8106.7056" x2="-16929.2227" y2="-8603.4639" gradientTransform="matrix(0.1187 0 0 0.1187 3705.7383 3291.0876)">
		<stop  offset="0" style="stop-color:#909CA9"/>
		<stop  offset="1" style="stop-color:#EDEDEE"/>
	</linearGradient>
	<path fill="url(#SVGID_1_)" d="M2628.177,1276.366l-485.165,158.425l-422.086,186.288l-118.085,31.174
		c-30.073,28.605-61.606,57.578-95.712,86.914c-37.405,32.27-72.242,61.611-99.016,82.876
		c-29.702,23.472-73.709,67.477-96.076,95.343c-33.373,41.803-59.776,86.176-71.145,120.284
		c-20.171,61.611-10.265,123.95,28.605,181.529c49.873,73.338,149.254,148.146,265.132,199.119
		c59.045,26.043,158.423,59.411,233.23,78.11c124.313,31.54,364.883,65.646,497.262,70.783c26.765,1.1,62.708,1.1,64.17,0
		c2.938-1.84,23.474-41.074,47.314-89.844c81.412-166.125,140.084-321.981,171.987-455.095
		c19.068-80.674,34.101-188.123,43.999-315.368c2.573-35.573,3.667-154.755,1.469-195.098
		c-3.304-66.006-9.172-119.544-18.332-171.985c-1.467-7.703-1.84-14.672-1.104-15.036c1.464-1.1,5.863-2.566,65.639-19.806
		l-12.096-28.6v-0.009h0.007V1276.366z M2517.429,1341.28c4.401,0,16.131,112.579,19.064,183.728
		c0.736,15.033,0.364,24.934-0.365,24.934c-2.931,0-61.977-34.834-104.14-61.237c-36.674-23.104-106.347-69.314-117.347-78.113
		c-3.675-2.566-3.311-2.932,26.765-13.202C2392.374,1380.15,2513.397,1341.28,2517.429,1341.28z M2270.263,1422.693
		c3.302,0,11.731,4.761,31.902,17.233c75.54,47.306,178.225,104.516,222.23,123.588c13.566,5.866,15.028,3.662-16.136,24.936
		c-66.743,45.471-149.993,90.208-251.939,135.315c-17.966,8.068-32.999,14.3-33.365,14.3c-0.729,0,1.464-9.161,4.394-20.166
		c24.572-91.318,38.51-183.728,39.246-257.804c0.365-36.675,0.365-36.675,3.668-37.768
		C2269.526,1422.693,2269.892,1422.693,2270.263,1422.693L2270.263,1422.693z M2219.291,1442.126
		c2.193,2.197,0.731,84.345-2.205,106.711c-6.599,53.543-16.868,103.414-33.73,159.526c-4.035,13.559-7.708,24.934-8.434,25.665
		c-1.474,1.831-51.715-47.307-68.215-66.375c-28.607-33.006-50.97-66.01-67.474-98.279c-8.436-16.504-21.634-48.77-20.537-49.873
		C2024.562,1515.468,2217.823,1440.662,2219.291,1442.126L2219.291,1442.126z M1979.456,1536.371c0.364,0,0.729,0,1.102,0.365
		c0.731,0.733,3.302,6.603,5.502,13.202c11.731,31.906,38.131,78.844,60.873,108.915c24.936,33.007,57.578,68.208,84.707,91.311
		c8.805,7.334,16.868,14.3,17.966,15.402c2.206,2.202,2.937,1.831-56.84,24.572c-69.302,26.401-144.849,52.805-231.396,80.674
		c-20.674,6.664-41.33,13.389-61.966,20.17c-3.306,1.104-2.204-0.733,7.33-15.766c42.905-67.112,108.177-198.759,144.852-291.906
		c6.234-16.136,12.467-32.268,13.571-35.937c1.467-5.137,3.297-6.968,8.063-9.537
		C1975.787,1537.109,1978.358,1536.371,1979.456,1536.371L1979.456,1536.371z M1906.12,1566.807
		c1.097,0.738-17.606,39.972-35.942,75.911c-35.573,69.307-74.444,137.522-126.517,220.396c-8.799,14.3-17.231,27.505-18.333,28.971
		c-1.831,2.569-2.569,1.833-8.436-9.534c-12.467-24.57-22.739-56.11-28.238-85.081c-5.502-28.607-4.401-78.475,1.836-109.279
		c4.761-22.734,4.401-22.366,15.4-27.869C1752.829,1636.486,1904.651,1565.341,1906.12,1566.807L1906.12,1566.807z
		 M2538.697,1592.481v15.4c0,81.779-8.799,193.993-21.64,275.773c-2.2,14.3-4.04,26.031-4.399,26.401c0,0-10.634-2.93-23.103-6.603
		c-55.005-17.237-114.78-42.541-168.69-72.238c-35.575-19.439-87.278-51.346-85.809-52.813c0.36-0.364,15.766-8.432,33.732-17.968
		c71.885-37.403,140.821-77.742,200.597-117.713c22.37-15.038,56.102-39.236,63.444-45.84L2538.697,1592.481L2538.697,1592.481z
		 M1629.245,1701.022c1.466,0,1.098,2.933-1.102,16.136c-1.467,9.537-3.299,27.14-4.028,39.236
		c-2.94,53.541,5.866,93.149,32.269,147.421c7.334,15.036,13.205,27.505,12.833,27.867c-2.568,2.204-245.328,73.35-321.61,94.249
		c-22.734,6.232-42.533,11.734-44.007,12.096c-2.562,0.738-2.931,0.372-1.831-5.868c8.432-53.901,49.506-124.312,106.711-183.723
		c38.141-39.603,68.579-62.704,120.653-92.413c37.405-21.265,94.977-53.165,99.378-54.636
		C1628.513,1701.022,1628.879,1701.022,1629.245,1701.022L1629.245,1701.022z M2201.32,1803.336
		c0.366-0.365,9.167,4.406,19.799,10.636c78.479,45.474,187.759,87.649,280.898,109.282l8.441,1.836l-11.738,6.594
		c-48.77,27.14-209.025,93.879-372.942,155.124c-23.841,8.796-47.307,17.602-51.715,19.434c-4.4,1.831-8.436,2.933-8.436,2.567
		c0-0.371,6.606-13.205,15.035-28.971c45.838-85.811,92.049-190.323,115.518-262.934
		C2199.119,1809.939,2200.949,1803.707,2201.32,1803.336L2201.32,1803.336z M2143.012,1822.407
		c0.373,0.374-2.566,8.068-6.235,16.868c-31.902,77.377-73.712,161.727-127.25,256.336c-13.565,24.205-24.936,43.642-25.308,43.642
		c-0.36,0-11.365-6.604-24.565-14.671c-77.749-47.675-146.689-106.348-191.791-163.189l-6.603-8.068l33.368-9.168
		c119.551-32.633,221.125-67.838,321.977-111.108C2130.909,1827.179,2142.647,1822.407,2143.012,1822.407z M2505.328,1948.925
		C2505.328,1948.925,2505.693,1949.29,2505.328,1948.925c0.364,8.434-18.339,83.979-33.742,138.614
		c-12.834,45.84-23.841,81.781-44.005,145.218c-8.799,27.877-16.497,50.973-16.868,50.973c-0.365,0-2.566-0.365-4.766-1.095
		c-108.911-19.808-206.46-47.309-298.138-83.979c-25.674-10.27-62.342-26.774-64.542-28.605
		c-0.731-0.741,21.273-11.003,49.142-23.104c166.855-72.976,339.943-155.855,399.347-191.422
		C2498.722,1951.121,2504.224,1948.925,2505.328,1948.925L2505.328,1948.925z M1668.853,1977.53
		c0.733,0.731-45.84,67.841-111.119,159.152c-22.734,31.906-49.137,69.309-59.035,83.241c-9.903,13.936-24.938,35.941-33.371,49.142
		l-15.411,23.837l-16.502-13.935c-19.437-16.138-53.17-50.608-68.205-69.677c-31.54-39.234-52.806-80.674-61.24-118.442
		c-4.035-17.606-4.035-26.41-0.372-27.505c5.499-1.466,103.413-24.57,195.098-45.844c50.974-11.732,110.01-25.665,131.28-30.8
		C1651.247,1981.558,1668.487,1977.53,1668.853,1977.53L1668.853,1977.53z M1715.79,1995.499l11.731,13.2
		c52.813,59.042,106.718,102.688,171.993,140.817c11.738,6.606,20.537,12.469,19.799,12.843
		c-2.559,1.831-226.628,81.4-330.406,117.34c-58.305,20.534-106.347,37.036-106.71,37.036c-0.366,0-3.668-2.197-7.341-4.764
		l-6.597-4.77l10.634-15.398c34.468-49.875,77.747-104.513,171.992-218.194L1715.79,1995.499L1715.79,1995.499z M2008.432,2204.889
		c0.359-0.364,16.495,5.499,36.296,12.843c47.68,17.964,85.445,29.331,136.056,42.167c62.342,15.771,152.552,31.173,205.729,35.572
		c8.068,0.731,12.469,1.467,11,2.569c-2.571,1.468-56.472,19.437-96.079,31.904c-63.08,19.799-255.6,76.639-412.552,121.748
		c-28.973,8.434-53.91,15.402-55.376,15.766c-3.662,0.738-15.769-2.568-15.769-4.035c0-0.728,8.799-12.094,19.437-24.565
		c52.803-63.077,105.247-133.484,148.887-200.226C1998.159,2220.289,2008.432,2205.256,2008.432,2204.889L2008.432,2204.889z
		 M1943.885,2206.727c0.364,0.365-25.669,42.169-71.136,114.043c-19.44,30.438-41.077,64.908-48.78,77.011
		c-7.335,11.734-18.335,30.074-24.567,40.338l-10.636,18.706l-5.501-1.467c-13.205-3.669-105.98-36.31-130.552-46.209
		c-30.438-12.103-61.975-26.767-85.447-39.236c-29.333-15.771-66.003-39.243-63.072-39.972
		c0.731-0.364,50.974-13.938,111.477-30.437c160.623-43.645,249.732-68.945,308.045-87.278
		C1934.353,2208.924,1943.519,2206.356,1943.885,2206.727L1943.885,2206.727z M2400.444,2313.802h0.365
		c1.468,3.671-57.936,168.691-79.582,220.761c-4.759,11.734-6.589,14.674-9.16,14.3c-6.235-0.361-92.409-12.464-144.855-20.166
		c-91.308-13.935-244.597-40.708-283.099-49.506l-8.801-1.831l54.634-12.476c117.352-26.403,173.825-40.703,231.03-58.305
		c72.245-22.001,143.759-49.506,215.997-83.241C2388.341,2318.201,2397.876,2314.167,2400.444,2313.802L2400.444,2313.802z"/>
	
		<linearGradient id="SVGID_2_" gradientUnits="userSpaceOnUse" x1="-17736.7598" y1="-24560.9941" x2="-17060.3086" y2="-24560.9941" gradientTransform="matrix(0.1187 0 0 0.1187 3705.7383 3291.0876)">
		<stop  offset="0" style="stop-color:#939FAB"/>
		<stop  offset="1" style="stop-color:#DCDEE1"/>
	</linearGradient>
	<path fill="url(#SVGID_2_)" d="M2127.98,145.421c-8.068-1.094-138.257,45.844-222.231,79.945
		c-113.317,46.212-201.323,90.22-255.6,128.349c-20.165,14.308-45.473,39.608-49.503,49.507c-1.466,3.669-2.202,8.068-2.202,12.469
		l49.142,46.573l116.978,37.405l278.337,49.874l318.305,54.642l3.302-27.503c-1.097,0-1.835-0.366-2.925-0.366l-41.817-6.603
		l-8.427-15.034c-43.274-76.278-90.948-170.892-118.816-234.7c-21.634-49.507-42.171-106.709-53.543-147.783
		c-6.233-24.937-6.965-26.402-10.993-26.768v-0.009h-0.009V145.421z M2122.105,164.129h0.378c0.359,0.362,1.828,10.637,3.297,22.731
		c6.229,51.348,17.606,100.846,35.572,154.389c13.565,40.339,13.565,38.142-2.2,33.371
		c-37.405-10.265-204.992-39.236-326.374-56.104c-19.437-2.568-35.939-5.134-35.939-5.5c-1.467-1.466,87.642-48.043,126.881-66.374
		C1973.957,223.534,2111.842,165.96,2122.105,164.129z M1768.594,328.415l14.309,4.762c77.737,26.408,273.192,63.814,381.012,72.614
		c12.096,1.101,22.37,2.204,22.73,2.204c0.365,0.365-9.896,5.866-23.101,12.097c-52.069,26.038-109.279,57.942-148.884,82.514
		c-11.731,7.331-22.372,13.202-23.834,13.202c-1.467,0-9.167-1.468-17.233-2.569l-14.669-2.203l-36.667-35.941
		c-64.542-62.704-115.152-111.109-134.589-129.449L1768.594,328.415z M1753.931,339.78l51.706,64.544
		c28.234,35.572,56.838,70.408,63.078,78.105c6.228,7.706,11.365,13.943,11,14.308c-1.467,1.099-74.806-13.205-113.683-22.002
		c-39.97-9.171-56.472-13.571-81.041-21.269l-20.171-6.603v-5.138c0.366-24.571,31.54-61.239,84.345-98.641L1753.931,339.78z
		 M2193.253,427.794c1.469,0,3.297,3.299,7.698,13.2c12.467,27.502,51.346,101.581,60.873,115.881
		c2.942,4.772,8.068,5.138-43.633-3.298c-124.313-20.174-164.289-26.768-164.289-27.502c0-0.365,3.668-2.934,8.434-5.502
		c38.508-21.266,77.377-48.405,111.85-77.376c8.436-6.969,16.136-13.569,17.599-14.672
		C2192.15,427.793,2192.888,427.428,2193.253,427.794L2193.253,427.794z"/>
	
		<radialGradient id="SVGID_3_" cx="-8036.3433" cy="-6607.2764" r="898.12" gradientTransform="matrix(-0.114 -0.0171 0.0346 -0.228 1624.5731 -622.9055)" gradientUnits="userSpaceOnUse">
		<stop  offset="0" style="stop-color:#EE352C"/>
		<stop  offset="1" style="stop-color:#A91D22"/>
	</radialGradient>
	<path fill="url(#SVGID_3_)" d="M1603.205,398.088c0,0-8.063,12.839-0.364,31.91c4.773,11.731,18.706,26.031,34.471,40.702
		c0,0,163.187,159.152,182.99,181.891c90.209,104.144,129.45,206.825,133.118,348.379c2.2,90.944-15.042,170.888-57.943,263.667
		c-76.277,166.489-237.267,350.215-485.53,554.109l36.31-12.103c23.468-17.606,55.374-36.303,130.181-77.377
		c172.719-94.617,367.079-181.527,605.445-271.004c343.235-129.088,907.616-280.177,1228.85-329.311l33.376-5.137l-5.137-8.068
		c-29.331-45.474-49.508-73.707-73.714-103.778c-70.404-87.28-155.842-158.052-260.361-216.727
		c-143.752-80.306-329.682-143.015-565.105-189.588c-44.371-8.805-141.919-25.672-221.127-37.774
		c-167.958-26.03-276.504-44.003-396.05-64.539c-42.902-7.337-107.084-18.336-149.622-27.502
		c-22.003-4.772-64.17-14.672-97.176-26.039C1649.416,439.527,1611.273,429.259,1603.205,398.088L1603.205,398.088z
		 M1697.824,489.77c0.362-0.361,6.228,1.831,13.934,4.401c13.934,4.762,31.902,10.264,53.177,16.136
		c16.095,4.427,32.23,8.705,48.404,12.833c22.003,5.498,40.336,10.633,40.7,10.633c2.573,2.569,39.612,121.009,52.08,166.483
		c4.761,17.24,8.434,31.905,8.068,31.905c-0.378,0.372-4.406-5.866-9.172-14.299c-42.907-75.545-110.748-152.187-189.227-213.797
		C1705.526,496.738,1697.824,490.136,1697.824,489.77z M1878.246,539.644c1.835,0,9.903,1.1,19.799,3.299
		c62.342,13.934,174.192,35.204,245.699,47.307c12.103,1.831,21.641,4.037,21.641,4.765c0,0.737-4.406,3.3-9.908,6.237
		c-12.096,6.231-60.873,35.199-77.004,46.203c-40.708,27.136-77.377,56.472-103.782,82.875
		c-10.634,10.637-19.806,19.437-19.806,19.437s-2.193-6.231-4.035-13.937c-13.193-50.974-40.702-126.519-65.637-179.688
		c-4.035-8.432-7.339-16.135-7.339-16.865C1877.873,540.008,1877.873,539.643,1878.246,539.644L1878.246,539.644z M2195.817,600.151
		c2.2,0.73,5.868,13.2,13.201,40.702c13.571,53.177,19.806,112.584,17.606,167.958c-0.738,15.402-1.469,29.702-2.206,31.54
		l-1.098,3.663l-19.068-6.232c-39.239-12.469-103.045-31.174-157.683-46.574c-31.176-8.435-56.472-16.136-56.472-16.868
		c0-2.203,45.474-47.674,64.908-64.908C2092.036,676.79,2192.515,599.048,2195.817,600.151L2195.817,600.151z M2221.12,603.814
		c1.104-1.094,151.822,24.937,220.398,38.14c50.977,9.899,125.05,25.303,129.448,27.14c2.2,0.73-5.502,5.13-30.074,16.13
		c-96.809,43.643-168.69,82.876-240.19,130.553c-18.704,12.468-34.475,22.735-34.84,22.735c-0.364,0-0.731-10.631-0.731-23.468
		c0-69.673-13.936-140.083-39.612-199.491C2222.953,609.685,2220.755,604.186,2221.12,603.814z M2610.937,680.828
		c1.102,1.098-3.668,30.805-8.068,48.404c-13.2,54.641-48.77,135.691-92.404,211.962c-7.708,13.569-14.672,24.572-15.412,24.936
		c-0.726,0.366-10.629-5.137-21.999-11.738c-42.536-24.936-90.942-48.404-143.752-70.41c-14.662-6.232-27.501-11.369-27.867-12.096
		c-2.573-2.202,115.512-80.312,177.854-117.717C2528.796,724.1,2609.469,679.358,2610.937,680.828L2610.937,680.828z
		 M2638.806,685.226c3.302,0,70.045,18.338,104.877,28.606c86.181,25.672,185.192,61.974,249.734,91.31l26.765,12.106l-18.695,4.397
		c-157.683,36.301-292.636,78.113-422.823,130.918c-10.634,4.401-20.171,8.068-20.896,8.068c-0.738,0,2.93-8.434,7.698-18.704
		c39.239-83.243,64.542-170.154,70.771-244.235c0.373-6.968,1.466-12.466,2.568-12.466H2638.806z M1974.325,837.782
		c1.098-1.103,52.072,11.001,79.577,18.695c41.803,11.739,130.545,41.44,130.545,43.643c0,0.366-9.898,8.801-21.629,19.071
		c-48.04,39.972-94.25,82.139-149.627,135.68c-16.502,15.774-30.433,28.609-31.164,28.609c-0.736,0-1.097-2.205-0.736-5.139
		c8.432-61.609,6.604-140.817-5.132-221.127C1975.056,846.943,1973.957,838.147,1974.325,837.782z M3045.495,838.884
		c0.726,0.729-23.474,38.867-38.874,60.501c-21.999,31.537-54.279,73.35-127.255,165.027
		c-38.496,48.402-81.776,103.047-96.072,121.38c-14.676,18.335-26.772,33.733-27.143,33.733c-0.366,0-5.126-6.596-10.263-14.662
		c-41.074-61.611-90.216-115.518-148.523-163.923c-11.001-9.17-23.098-19.071-27.131-22.006c-4.035-2.931-7.339-5.866-7.339-6.23
		c0-1.098,62.335-27.874,109.649-46.939c82.879-33.74,195.815-74.078,280.533-100.116
		C2997.451,851.716,3044.759,838.147,3045.495,838.884L3045.495,838.884z M3073.73,846.212c1.462-0.362,10.269,4.037,20.903,10.265
		c89.114,50.974,176.385,116.619,245.333,184.095c19.433,19.073,67.474,68.945,66.736,69.31c0,0-16.867,1.466-36.667,2.931
		c-154.386,11.739-352.041,44.371-542.002,90.209c-12.833,2.93-24.199,5.499-24.936,5.499c-0.726,0,13.571-14.3,31.543-31.533
		c111.478-107.446,162.454-175.289,222.589-296.307c8.432-17.964,15.769-33.366,16.5-34.468c-0.365,0-0.365,0,0,0V846.212z
		 M2257.058,929.829c5.137,1.093,52.81,23.472,88.747,41.436c33.004,16.495,82.513,42.905,85.078,45.102
		c0.365,0.366-17.24,9.534-38.867,20.17c-68.948,34.471-127.986,67.105-189.597,104.511c-17.601,10.638-32.27,19.442-32.634,19.442
		c-1.469,0-1.104-1.474,8.8-19.442c33.006-60.135,59.406-132.013,74.445-202.057C2254.49,933.492,2255.959,929.829,2257.058,929.829
		L2257.058,929.829z M2209.383,938.625c1.104,1.104-11.365,46.206-19.063,70.776c-15.04,46.575-40.341,104.88-64.908,148.885
		c-5.875,10.263-14.672,25.301-19.44,33.734l-9.165,14.669l-20.537-19.797c-23.834-23.104-43.274-37.406-68.205-50.244
		c-9.908-5.13-17.605-9.536-17.605-10.263c0-2.935,62.708-59.775,110.746-100.847c34.47-29.705,107.08-88.011,108.177-86.911
		V938.625z M2500.929,1058.543l17.971,11.731c41.062,26.776,89.466,62.344,126.512,93.513
		c20.896,17.231,61.233,53.541,69.309,62.342l4.394,4.771l-29.697,8.432c-167.958,46.569-297.774,88.007-449.227,143.752
		c-16.869,6.232-31.171,11.365-32.275,11.365c-2.193,0-4.033,1.831,33.744-33.008c96.813-89.104,182.621-187.388,246.43-283.102
		L2500.929,1058.543L2500.929,1058.543z M2424.283,1077.613c0.729,0.729-49.508,71.504-79.582,111.477
		c-35.935,47.673-99.747,127.616-143.75,179.684c-18.332,21.641-34.097,39.608-34.835,39.977c-1.102,0.366-1.468-5.135-1.468-13.569
		c0-44.378-11.365-91.682-31.171-132.018c-8.435-16.868-9.903-20.903-8.063-22.734c6.966-6.237,113.678-67.112,181.151-103.414
		c45.473-24.201,116.609-60.138,117.718-59.406V1077.613z M1960.752,1191.294c1.102,0,9.537,4.395,19.073,9.534
		c23.47,12.833,44.373,27.134,63.073,42.54c0.731,0.731-8.799,8.435-21.268,17.597c-34.839,24.936-87.644,64.911-118.444,89.483
		c-32.278,25.669-33.371,26.401-29.707,20.902c24.205-37.039,36.301-57.943,49.141-84.71c11.367-23.834,22.732-52.072,30.8-76.644
		C1956.352,1199.36,1960.021,1191.294,1960.752,1191.294L1960.752,1191.294z M2084.34,1288.102
		c1.828-0.362,4.035,2.935,13.931,17.606c20.902,31.164,37.039,72.976,41.079,106.713l0.726,7.337l-50.234,19.437
		c-89.851,34.835-172.723,69.308-228.837,94.974c-15.764,7.337-43.269,20.535-61.235,29.343
		c-17.971,9.161-32.639,16.131-32.639,15.766c0-0.365,11.365-8.801,25.3-19.071c109.655-79.573,204.63-166.855,275.77-254.131
		c7.703-9.17,14.674-17.606,15.402-17.971L2084.34,1288.102L2084.34,1288.102z M2027.5,1302.04
		c1.467,1.466-40.338,48.77-68.941,77.741c-70.776,72.247-140.819,128.723-227.733,183.731c-11,6.965-20.899,13.196-22.003,13.934
		c-2.568,1.466,0.731-2.204,38.872-43.643c24.205-26.038,42.538-48.039,63.44-75.173c13.934-17.966,16.504-20.534,36.675-34.842
		C1901.719,1384.916,2026.033,1300.571,2027.5,1302.04z"/>
</g>
<path fill="#231F1F" d="M449.532,1522.123c-3.849,0-7.699,0.367-11.514,0.367c-77.747,4.143-130.183,38.358-160.842,105.175
	c-26.222,60.431-23.358,139.421,0.294,200.222c27.505,59.408,71.949,90.762,146.134,102.604
	c15.696,2.57,26.222,11.188,56.621,46.684l37.406,43.823h67.842l-45.11-45.476c-24.937-24.935-45.105-46.646-45.105-48.554
	c0-1.905,9.539-6.086,21.086-9.605c38.065-11.52,69.677-40.927,91.789-85.997c17.896-36.191,20.465-47.38,23.03-92.409
	c6.712-134.033-63.956-217.83-181.635-216.873L449.532,1522.123L449.532,1522.123z M509.012,1872.629
	c-33.004,15.985-80.929,19.176-112.211,7.699c-32.346-11.88-63.662-45.472-77.747-83.5c-15.657-41.584-13.421-118.299,4.475-152.848
	c28.787-55.007,66.854-80.308,122.483-80.308c82.51,0,129.449,50.535,135.574,145.512c4.841,79.285-21.71,138.765-72.538,163.41
	L509.012,1872.629z M1680.957,1636.611c-28.458,0-50.24,11.518-64.912,34.212l-11.514,17.971v-46.721h-49.249v280.171h49.217
	v-89.552c0-81.888,1.021-91.459,12.465-113.867c15.771-30.729,42.903-46.055,69.128-38.72l17.601,5.134v-48.554h-22.735V1636.611
	L1680.957,1636.611z M1391.62,1634.042c-9.647,0-19.88,1.285-30.068,3.524c-65.902,17.232-103.05,80.307-100.777,145.216
	c0,54.35,10.56,81.52,36.784,110.016c53.725,44.077,102.313,47.597,167.88,23.946c11.187-4.767,23.36-10.268,23.36-10.268v-44.077
	l-23.36,12.101c-53.063,23.102-93.035,23.102-125.052-4.109c-20.422-20.793-29.409-45.729-33.551-74.183h198.574v-37.776
	c0-77.01-46.353-125.636-113.83-124.39H1391.62L1391.62,1634.042z M1311.309,1756.893c0,0,7.336-48.038,34.545-66.888
	c13.096-9.244,28.127-13.715,42.831-13.715c14.744,0,29.448,4.766,41.586,14.046c24.94,19.179,29.118,66.193,29.118,66.193h-148.078
	v0.363H1311.309L1311.309,1756.893z M123.999,1706.362c-53.392-32.347-77.082-55.672-74.185-83.175
	c8.286-76.093,102.314-65.567,154.385-36.778l0.37-51.192c0,0-28.789-12.468-70.045-13.129
	c-63.294-0.954-104.22,19.801-123.396,62.047c-28.166,62.34-3.227,109.352,86.914,161.795
	c50.605,29.444,72.972,55.006,72.972,82.875c0,57.575-69.417,77.672-141.036,41.549c-14.739-7.334-27.209-13.459-27.869-13.459
	c-2.568,16.32-1.245,55.374-1.245,55.374s22.004,9.243,55.005,15.618c81.847,16.319,156.33-22.074,163.369-84.415
	c6.125-58.526-15.039-89.222-95.237-137.151L123.999,1706.362L123.999,1706.362z M2116.831,1633.385
	c-9.608,0-19.804,1.319-30.438,3.557c-65.823,17.234-102.901,80.312-100.371,145.221c0,54.274,10.526,81.189,36.745,109.645
	c53.727,44.118,102.315,47.673,168.214,23.986c11.147-4.766,23.286-10.19,23.286-10.19v-44.152l-23.321,12.171
	c-53.172,23.03-93.146,23.03-125.049-4.179c-20.538-20.756-29.447-45.399-33.593-74.188h198.246v-37.771
	c0-76.64-46.355-125.306-113.83-124.02L2116.831,1633.385L2116.831,1633.385z M2036.52,1756.233c0,0,7.408-47.967,34.58-67.185
	c13.057-9.275,28.091-13.752,42.796-13.752c14.668,0,29.448,4.768,41.59,14.082c24.937,19.18,29.118,66.522,29.118,66.522h-148.043
	L2036.52,1756.233L2036.52,1756.233z M1133.818,1706.984c-53.392-32.271-77.011-55.67-74.149-83.175
	c8.286-76.131,102.315-65.567,154.387-36.778l0.369-51.191c0,0-28.789-12.471-70.046-13.059
	c-63.294-0.952-104.22,19.804-123.432,62.048c-28.127,62.339-2.861,109.354,86.982,161.796
	c50.536,29.412,72.903,54.641,72.903,82.51c0,57.575-69.382,78.002-141.002,41.547c-14.668-7.334-27.135-13.386-27.868-13.386
	c-2.568,16.317-1.245,55.375-1.245,55.375s21.744,8.912,54.639,15.62c81.923,16.356,156.439-22.004,163.445-84.345
	c6.088-58.234-15.035-88.927-94.981-136.894v-0.068H1133.818z M2406.205,1635.951c-28.457,0-50.493,11.549-64.908,34.251
	l-11.518,17.895v-46.645h-49.249v280.096h49.214v-89.549c0-81.852,0.987-91.46,12.471-113.83
	c15.768-30.692,42.9-46.056,69.122-38.688l17.601,5.132v-48.66h-22.732V1635.951z M742.17,1705.369v-178.445h-49.651v395.247
	h208.809v-46.68H742.172v-170.122H742.17z M1890.423,1760.998l-40.926,106.494l-39.351-107.081l-39.972-118.666h-50.824
	c32.933,93.366,68.755,188.343,104.879,280.426c15.659,0.365,31.354,0,47.01,0l55.267-138.765l56.291-141.626h-48.588
	c0,0-21.456,56.255-43.822,119.255L1890.423,1760.998L1890.423,1760.998z M856.583,1419.221c7.996,0,14.669-2.563,20.17-8.064
	c5.425-5.43,8.286-11.811,8.286-19.804c0-7.996-2.861-14.67-8.286-19.805c-5.501-5.132-11.847-7.702-19.805-7.702
	c-8.064,0-14.74,2.57-20.169,7.995c-5.499,5.43-7.993,12.104-7.993,19.806c0,8.068,2.568,14.739,7.993,19.804
	c5.136,5.131,11.811,7.699,19.804,7.699V1419.221z M838.982,1373.75c4.766-4.766,10.561-6.969,17.968-6.969
	c6.969,0,12.765,2.203,17.605,6.969c4.768,4.767,7.334,10.561,7.334,17.603c0,7.039-2.566,13.129-7.334,17.895
	c-4.84,4.764-10.637,7.04-17.605,7.04c-7.077,0-12.835-2.2-17.601-7.04c-4.767-4.766-7.334-10.855-7.334-17.895
	C832.016,1384.311,834.216,1378.519,838.982,1373.75z M850.825,1393.921h3.227c2.276,0,4.512,2.198,6.418,6.38l3.854,8.652h6.049
	l-4.766-9.61c-1.942-3.848-3.849-6.085-6.087-6.712c2.823-0.66,5.06-1.611,6.674-3.521c1.61-1.647,2.198-3.887,2.198-6.418
	c0-2.933-0.916-5.131-2.857-6.746c-2.202-1.833-5.723-2.822-10.271-2.822h-10.19v35.829h5.133v-15.035L850.825,1393.921
	L850.825,1393.921z M850.825,1377.271h4.477c3.227,0,5.501,0.659,6.747,1.611c1.211,0.954,1.541,2.204,1.541,4.475
	c0,4.144-2.571,6.09-7.335,6.09h-5.499v-12.176H850.825L850.825,1377.271z M30.632,1390.729c0-12.469-0.365-21.744-0.659-27.21
	h0.294c1.282,6.45,2.86,11.258,4.143,14.447l47.671,106.494h7.996l47.671-107.446c1.287-2.931,2.57-7.334,4.146-13.459h0.365
	c-0.952,10.637-1.282,19.877-1.282,27.246v93.99h16.315v-139.718h-20.461l-43.82,97.178c-1.615,3.849-3.853,9.61-6.712,17.237
	h-0.663c-0.952-3.778-3.189-9.536-6.378-16.577l-42.834-98.171H14.679v139.717h15.695v-93.659L30.632,1390.729L30.632,1390.729z
	 M193.05,1390.988h14.085v87.019H193.05V1390.988z M200.092,1359.082c2.936,0,5.428-0.993,7.334-2.933
	c1.945-1.909,3.23-4.402,3.23-7.334c0-2.861-0.956-5.43-3.191-7.334c-1.98-1.945-4.512-2.938-7.408-2.938
	c-2.858,0-5.425,0.992-7.336,2.938c-1.938,1.904-3.225,4.473-3.225,7.334c0,3.191,0.991,5.425,3.225,7.334
	c2.205,1.939,4.476,2.933,7.336,2.933H200.092L200.092,1359.082z M307.541,1479.916v-15.331c-7.703,5.758-15.99,8.621-24.571,8.621
	c-10.265,0-18.593-3.519-24.681-10.265c-6.049-6.675-9.275-15.957-9.275-27.507c0-12.101,3.227-21.713,9.899-29.047
	c6.418-7.04,14.745-10.561,24.94-10.561c8.323,0,16.313,2.57,23.69,7.706v-16.319c-6.71-3.521-14.374-5.136-23.03-5.136
	c-15.991,0-28.456,5.136-37.77,15.041c-9.243,9.899-14.01,23.358-14.01,39.604c0,14.446,4.143,26.586,12.764,35.865
	c8.983,9.532,20.465,14.374,34.545,14.374C290.928,1486.662,299.838,1484.388,307.541,1479.916L307.541,1479.916z M347.841,1433.525
	c0-11.479,2.567-20.754,7.334-27.14c4.477-5.755,9.901-8.651,16.319-8.651c5.428,0,9.276,0.989,12.099,3.227v-16.65
	c-2.198-0.952-5.389-1.282-9.532-1.282c-5.758,0-10.889,1.938-15.4,5.501c-4.767,3.773-8.58,9.534-10.817,16.869h-0.365v-20.429
	h-15.952v99.747h15.987v-51.191H347.841z M439.63,1486.697c15.037,0,27.138-4.842,36.121-14.446
	c8.945-9.54,13.42-22.371,13.42-38.363c0-16.313-4.104-28.784-12.467-38.066c-8.286-9.271-19.804-13.751-34.841-13.751
	c-15.036,0-27.138,4.476-36.121,13.129c-9.606,9.539-14.668,22.997-14.668,40.27c0,15.035,4.107,27.505,12.765,36.781
	c8.945,9.605,20.791,14.41,35.791,14.41V1486.697L439.63,1486.697z M416.894,1405.434c6.088-6.418,14.085-9.61,23.982-9.61
	c10.271,0,17.971,3.192,23.691,9.61c5.757,6.712,8.62,16.285,8.62,29.081c0,12.172-2.569,21.745-7.997,28.163
	c-5.426,6.712-13.421,10.267-23.984,10.267c-10.267,0-18.225-3.559-24.313-10.267c-6.049-6.747-8.947-15.991-8.947-28.163
	C407.324,1422.413,410.515,1412.514,416.894,1405.434L416.894,1405.434z M559.181,1478.007c6.086-5.425,9.315-12.1,9.315-20.465
	c0-7.334-2.57-13.42-7.335-18.225c-3.89-3.847-9.899-7.334-18.592-10.854c-7.704-3.224-12.47-6.088-15.038-8.325
	c-2.565-2.565-4.144-5.753-4.144-10.267c0-4.144,1.615-7.334,4.771-9.901c3.227-2.563,7.334-3.81,12.835-3.81
	c8.618,0,15.987,2.271,22.733,7.077v-15.991c-6.453-3.223-13.458-4.764-21.453-4.764c-10.267,0-18.921,2.826-25.305,8.285
	c-6.712,5.432-9.899,12.471-9.899,20.756c0,7.334,2.198,13.424,6.377,17.895c3.521,3.814,9.539,7.704,17.896,11.185
	c7.997,3.522,13.423,6.71,16.318,9.275c2.859,2.57,4.144,5.758,4.144,9.539c0,9.312-6.379,14.119-18.849,14.119
	c-9.609,0-18.224-3.156-25.93-9.534v17.23c6.969,4.185,15.331,6.089,24.571,6.089c11.846-0.622,21.121-3.519,27.504-9.277
	L559.181,1478.007L559.181,1478.007z M635.311,1382.073c-15.039,0-27.139,4.477-36.123,13.13
	c-9.534,9.539-14.668,22.996-14.668,40.269c0,15.035,4.146,27.505,12.762,36.782c8.985,9.605,20.792,14.409,35.829,14.409
	c15.4,0,27.138-4.838,36.121-14.45c8.984-9.532,13.457-22.367,13.457-38.357c0-16.319-4.18-28.785-12.47-38.064
	c-8.649-9.278-20.169-13.753-34.838-13.753L635.311,1382.073L635.311,1382.073z M666.333,1434.517
	c0,12.172-2.567,21.745-7.994,28.163c-5.428,6.711-13.424,10.266-23.985,10.266c-10.271,0-18.227-3.558-24.316-10.266
	c-6.049-6.748-8.945-15.991-8.945-28.163c0-12.835,3.192-22.734,9.61-29.413c6.047-6.38,14.046-9.608,23.982-9.608
	c9.899,0,17.859,3.225,23.614,9.608c5.136,7.04,7.997,16.613,7.997,29.413H666.333L666.333,1434.517z M709.534,1484.425h15.952
	v-86.359h23.358v-13.423h-23.36v-15.402c0-14.006,5.425-21.047,16.648-21.047c3.777,0,7.628,0.952,10.489,2.566v-14.409
	c-2.861-1.283-6.712-1.576-11.52-1.576c-8.615,0-15.655,2.569-21.415,7.994c-6.712,6.38-10.267,14.668-10.267,25.894v16.355h-16.873
	v13.42h16.873v86.034L709.534,1484.425z M775.063,1457.214c0,19.512,8.621,29.448,26.222,29.448c6.382,0,11.185-1.025,15.035-3.3
	v-13.714c-2.933,2.201-6.418,3.229-10.267,3.229c-5.425,0-9.24-1.288-11.479-4.186c-2.274-2.855-3.557-7.7-3.557-14.375v-56.289
	h25.3v-13.423h-25.3v-29.408c-5.501,1.906-10.891,3.521-15.99,5.131v24.275h-17.235v13.424h17.235v59.151L775.063,1457.214z
	 M2491.281,1641.082c-5.426-5.13-11.844-7.699-19.8-7.699c-8.066,0-14.745,2.569-20.171,8.068c-5.427,5.391-7.997,12.1-7.997,19.804
	c0,7.995,2.57,14.67,7.956,19.801c5.43,5.134,12.102,7.704,20.171,7.704c7.956,0,14.668-2.57,20.171-7.997
	c5.391-5.501,8.251-11.844,8.251-19.8c-0.294-8.068-3.191-14.745-8.618-19.877L2491.281,1641.082z M2488.717,1678.857
	c-4.77,4.766-10.563,6.965-17.604,6.965c-6.966,0-12.759-2.199-17.601-6.965c-4.765-4.842-7.336-10.893-7.336-17.971
	c0-6.969,2.201-12.76,7.042-17.601c4.766-4.764,10.526-6.969,17.895-6.969c6.969,0,12.766,2.205,17.604,6.969
	c4.766,4.841,7.332,10.631,7.332,17.601C2496.049,1668.297,2493.849,1674.016,2488.717,1678.857z M2474.339,1662.537
	c2.86-0.66,5.136-1.943,6.712-3.52c1.615-1.652,2.203-3.891,2.203-6.451c0-2.861-0.918-5.136-2.859-6.712
	c-2.2-1.835-5.756-2.825-10.265-2.825h-10.195v35.789h5.136v-15.035h3.188c2.203,0,4.404,2.198,6.381,6.38l3.812,8.618h6.091
	l-4.766-9.61c-1.652-4.181-3.559-6.09-5.499-6.714L2474.339,1662.537L2474.339,1662.537z M2470.818,1659.313h-5.499v-12.1h4.512
	c3.19,0,5.427,0.583,6.712,1.575c1.281,0.952,1.576,2.2,1.576,4.475c0,4.144-2.567,6.053-7.333,6.053L2470.818,1659.313
	L2470.818,1659.313z M1578.645,1380.499h4.475v-35.828h11.84v-4.475H1566.8v4.475h11.848v35.828H1578.645z M1605.78,1353.582
	c0-3.486,0-6.346-0.257-7.956c0.294,1.904,0.954,3.191,1.248,4.144l13.753,30.729h2.2l13.786-31.025
	c0.37-0.952,0.664-2.2,1.285-3.848c-0.295,3.191-0.295,5.751-0.295,7.699v27.138h4.77v-40.267h-5.76l-12.465,27.797
	c-0.295,0.993-1.289,2.933-1.909,5.136h-0.367c-0.257-1.286-0.915-2.568-1.833-4.765l-12.468-28.165h-6.453v40.339h4.508v-26.917
	L1605.78,1353.582L1605.78,1353.582z"/>
</svg>
