<?xml version="1.0" encoding="utf-8"?>
<!-- Generator: Adobe Illustrator 16.0.3, SVG Export Plug-In . SVG Version: 6.00 Build 0)  -->
<!DOCTYPE svg PUBLIC "-//W3C//DTD SVG 1.1//EN" "http://www.w3.org/Graphics/SVG/1.1/DTD/svg11.dtd">
<svg version="1.1" id="Capa_1" xmlns="http://www.w3.org/2000/svg" xmlns:xlink="http://www.w3.org/1999/xlink" x="0px" y="0px"
	 width="623.622px" height="623.622px" viewBox="0 0 623.622 623.622" enable-background="new 0 0 623.622 623.622"
	 xml:space="preserve">
<title>icon</title>
<path fill="#8ED6FB" d="M563.174,471.184L321.932,607.659V501.387l150.311-82.707L563.174,471.184L563.174,471.184z M579.7,456.239
	V170.877l-88.242,51v183.442L579.7,456.239L579.7,456.239z M59.499,471.184L300.74,607.659V501.387L150.349,418.68L59.499,471.184z
	 M42.972,456.239V170.877l88.242,51v183.442L42.972,456.239z M53.332,152.375L300.74,12.421v102.711l-158.535,87.214l-1.265,0.711
	L53.332,152.375z M569.342,152.375L321.932,12.421v102.711l158.535,87.135l1.264,0.711L569.342,152.375L569.342,152.375z"/>
<path fill="#1C78C0" d="M300.74,477.194l-148.335-81.602V234.051l148.335,85.633V477.194z M321.932,477.194l148.334-81.521V234.053
	l-148.334,85.631V477.194L321.932,477.194z M162.447,215.393l148.888-81.837l148.89,81.837l-148.89,85.949L162.447,215.393
	L162.447,215.393z"/>
</svg>
